  0
SECTION
  2
HEADER
  9
$ACADVER
  1
AC1014
  9
$HANDSEED
  5
FFFF
  9
$MEASUREMENT
 70
     1
  0
ENDSEC
  0
SECTION
  2
TABLES
  0
TABLE
  2
VPORT
  5
8
330
0
100
AcDbSymbolTable
 70
     4
  0
VPORT
  5
2E
330
8
100
AcDbSymbolTableRecord
100
AcDbViewportTableRecord
  2
*ACTIVE
 70
     0
 10
0.0
 20
0.0
 11
1.0
 21
1.0
 12
210.0
 22
148.5
 13
0.0
 23
0.0
 14
10.0
 24
10.0
 15
10.0
 25
10.0
 16
0.0
 26
0.0
 36
1.0
 17
0.0
 27
0.0
 37
0.0
 40
341.0
 41
1.24
 42
50.0
 43
0.0
 44
0.0
 50
0.0
 51
0.0
 71
     0
 72
   100
 73
     1
 74
     3
 75
     0
 76
     0
 77
     0
 78
     0
  0
ENDTAB
  0
TABLE
  2
LTYPE
  5
5
330
0
100
AcDbSymbolTable
 70
     1
  0
LTYPE
  5
14
330
5
100
AcDbSymbolTableRecord
100
AcDbLinetypeTableRecord
  2
BYBLOCK
 70
     0
  3

 72
    65
 73
     0
 40
0.0
  0
LTYPE
  5
15
330
5
100
AcDbSymbolTableRecord
100
AcDbLinetypeTableRecord
  2
BYLAYER
 70
     0
  3

 72
    65
 73
     0
 40
0.0
  0
LTYPE
  5
16
330
5
100
AcDbSymbolTableRecord
100
AcDbLinetypeTableRecord
  2
CONTINUOUS
 70
     0
  3
Solid line
 72
    65
 73
     0
 40
0.0
  0
ENDTAB
  0
TABLE
  2
LAYER
  5
2
100
AcDbSymbolTable
 70
1
  0
LAYER
  5
50
100
AcDbSymbolTableRecord
100
AcDbLayerTableRecord
  2
0
 70
0
  6
CONTINUOUS
  0
ENDTAB
  0
TABLE
  2
STYLE
  5
3
330
0
100
AcDbSymbolTable
 70
     1
  0
STYLE
  5
11
330
3
100
AcDbSymbolTableRecord
100
AcDbTextStyleTableRecord
  2
STANDARD
 70
     0
 40
0.0
 41
1.0
 50
0.0
 71
     0
 42
2.5
  3
txt
  4

  0
ENDTAB
  0
TABLE
  2
VIEW
  5
6
330
0
100
AcDbSymbolTable
 70
     0
  0
ENDTAB
  0
TABLE
  2
UCS
  5
7
330
0
100
AcDbSymbolTable
 70
     0
  0
ENDTAB
  0
TABLE
  2
APPID
  5
9
330
0
100
AcDbSymbolTable
 70
     2
  0
APPID
  5
12
330
9
100
AcDbSymbolTableRecord
100
AcDbRegAppTableRecord
  2
ACAD
 70
     0
  0
ENDTAB
  0
TABLE
  2
DIMSTYLE
  5
A
330
0
100
AcDbSymbolTable
 70
     1
  0
DIMSTYLE
105
27
330
A
100
AcDbSymbolTableRecord
100
AcDbDimStyleTableRecord
  2
ISO-25
 70
     0
  3

  4

  5

  6

  7

 40
1.0
 41
2.5
 42
0.625
 43
3.75
 44
1.25
 45
0.0
 46
0.0
 47
0.0
 48
0.0
140
2.5
141
2.5
142
0.0
143
0.03937007874016
144
1.0
145
0.0
146
1.0
147
0.625
 71
     0
 72
     0
 73
     0
 74
     0
 75
     0
 76
     0
 77
     1
 78
     8
170
     0
171
     3
172
     1
173
     0
174
     0
175
     0
176
     0
177
     0
178
     0
270
     2
271
     2
272
     2
273
     2
274
     3
340
11
275
     0
280
     0
281
     0
282
     0
283
     0
284
     8
285
     0
286
     0
287
     3
288
     0
  0
ENDTAB
  0
TABLE
  2
BLOCK_RECORD
  5
1
330
0
100
AcDbSymbolTable
 70
     1
  0
BLOCK_RECORD
  5
1F
330
1
100
AcDbSymbolTableRecord
100
AcDbBlockTableRecord
  2
*MODEL_SPACE
  0
BLOCK_RECORD
  5
1B
330
1
100
AcDbSymbolTableRecord
100
AcDbBlockTableRecord
  2
*PAPER_SPACE
  0
ENDTAB
  0
ENDSEC
  0
SECTION
  2
BLOCKS
  0
BLOCK
  5
20
330
1F
100
AcDbEntity
  8
0
100
AcDbBlockBegin
  2
*MODEL_SPACE
 70
     0
 10
0.0
 20
0.0
 30
0.0
  3
*MODEL_SPACE
  1

  0
ENDBLK
  5
21
330
1F
100
AcDbEntity
  8
0
100
AcDbBlockEnd
  0
BLOCK
  5
1C
330
1B
100
AcDbEntity
 67
     1
  8
0
100
AcDbBlockBegin
  2
*PAPER_SPACE
  1

  0
ENDBLK
  5
1D
330
1B
100
AcDbEntity
 67
     1
  8
0
100
AcDbBlockEnd
  0
ENDSEC
  0
SECTION
  2
ENTITIES
  0
LWPOLYLINE
  5
100
100
AcDbEntity
  8
0
 62
1
100
AcDbPolyline
 90
6
 70
0
 10
0.555707
 20
4.180489
 30
0.0
 10
0.555696
 20
4.495444
 30
0.0
 10
0.461207
 20
4.589933
 30
0.0
 10
0.461207
 20
5.030878
 30
0.0
 10
0.555696
 20
5.125367
 30
0.0
 10
0.555696
 20
5.440322
 30
0.0
  0
LWPOLYLINE
  5
101
100
AcDbEntity
  8
0
 62
1
100
AcDbPolyline
 90
5
 70
1
 10
4.366719
 20
5.125356
 30
0.0
 10
4.398219
 20
5.125356
 30
0.0
 10
4.398219
 20
4.495444
 30
0.0
 10
4.366719
 20
4.495444
 30
0.0
 10
4.366719
 20
5.125356
 30
0.0
  0
LWPOLYLINE
  5
102
100
AcDbEntity
  8
0
 62
1
100
AcDbPolyline
 90
5
 70
1
 10
1.500537
 20
5.125356
 30
0.0
 10
1.815860
 20
5.125356
 30
0.0
 10
1.815860
 20
4.495444
 30
0.0
 10
1.500537
 20
4.495444
 30
0.0
 10
1.500537
 20
5.125356
 30
0.0
  0
LWPOLYLINE
  5
103
100
AcDbEntity
  8
0
 62
1
100
AcDbPolyline
 90
5
 70
1
 10
3.106837
 20
5.124489
 30
0.0
 10
3.422159
 20
5.124489
 30
0.0
 10
3.422159
 20
4.494578
 30
0.0
 10
3.106837
 20
4.494578
 30
0.0
 10
3.106837
 20
5.124489
 30
0.0
  0
LWPOLYLINE
  5
104
100
AcDbEntity
  8
0
 62
1
100
AcDbPolyline
 90
5
 70
1
 10
8.728911
 20
4.179611
 30
0.0
 10
10.618667
 20
4.179611
 30
0.0
 10
10.618667
 20
4.148122
 30
0.0
 10
8.728911
 20
4.148122
 30
0.0
 10
8.728911
 20
4.179611
 30
0.0
  0
LWPOLYLINE
  5
105
100
AcDbEntity
  8
0
 62
1
100
AcDbPolyline
 90
5
 70
1
 10
5.184427
 20
4.172794
 30
0.0
 10
6.682782
 20
4.172794
 30
0.0
 10
6.682782
 20
4.147827
 30
0.0
 10
5.184427
 20
4.147827
 30
0.0
 10
5.184427
 20
4.172794
 30
0.0
  0
SPLINE
  5
106
100
AcDbEntity
  8
0
 62
1
100
AcDbSpline
 70
8
 71
3
 72
8
 73
4
 74
0
 40
0
 40
0
 40
0
 40
0
 40
1
 40
1
 40
1
 40
1
 10
1.500534
 20
0.839963
 30
0.0
 10
1.343501
 20
0.839052
 30
0.0
 10
1.185578
 20
0.839052
 30
0.0
 10
1.185578
 20
0.681563
 30
0.0
  0
LWPOLYLINE
  5
107
100
AcDbEntity
  8
0
 62
1
100
AcDbPolyline
 90
7
 70
0
 10
0.554812
 20
4.179611
 30
0.0
 10
0.555645
 20
3.392211
 30
0.0
 10
0.461167
 20
3.297722
 30
0.0
 10
0.461167
 20
1.990641
 30
0.0
 10
0.555656
 20
1.896152
 30
0.0
 10
0.555656
 20
1.468974
 30
0.0
 10
1.500534
 20
0.839963
 30
0.0
  0
LWPOLYLINE
  5
108
100
AcDbEntity
  8
0
 62
1
100
AcDbPolyline
 90
6
 70
0
 10
1.185578
 20
0.681563
 30
0.0
 10
1.500078
 20
0.681563
 30
0.0
 10
2.445412
 20
0.681563
 30
0.0
 10
2.444956
 20
1.151808
 30
0.0
 10
2.445401
 20
1.151808
 30
0.0
 10
2.445423
 20
4.178533
 30
0.0
  0
SPLINE
  5
109
100
AcDbEntity
  8
0
 62
1
100
AcDbSpline
 70
8
 71
3
 72
8
 73
4
 74
0
 40
0
 40
0
 40
0
 40
0
 40
1
 40
1
 40
1
 40
1
 10
12.350967
 20
0.478789
 30
0.0
 10
12.508000
 20
0.477878
 30
0.0
 10
12.665922
 20
0.477878
 30
0.0
 10
12.665922
 20
0.320389
 30
0.0
  0
LWPOLYLINE
  5
10a
100
AcDbEntity
  8
0
 62
1
100
AcDbPolyline
 90
7
 70
0
 10
13.295844
 20
4.179589
 30
0.0
 10
13.295856
 20
3.417078
 30
0.0
 10
13.295844
 20
3.322589
 30
0.0
 10
13.295844
 20
1.621800
 30
0.0
 10
13.295844
 20
1.527311
 30
0.0
 10
13.295844
 20
1.107800
 30
0.0
 10
12.350967
 20
0.478789
 30
0.0
  0
LWPOLYLINE
  5
10b
100
AcDbEntity
  8
0
 62
1
100
AcDbPolyline
 90
10
 70
0
 10
12.665922
 20
0.320389
 30
0.0
 10
12.351422
 20
0.320389
 30
0.0
 10
11.406089
 20
0.320389
 30
0.0
 10
11.406544
 20
0.790633
 30
0.0
 10
11.406100
 20
0.790633
 30
0.0
 10
11.405722
 20
2.541800
 30
0.0
 10
11.311844
 20
2.636300
 30
0.0
 10
11.311600
 20
3.297711
 30
0.0
 10
11.405422
 20
3.392200
 30
0.0
 10
11.405233
 20
4.179600
 30
0.0
  0
SPLINE
  5
10c
100
AcDbEntity
  8
0
 62
1
100
AcDbSpline
 70
8
 71
3
 72
8
 73
4
 74
0
 40
0
 40
0
 40
0
 40
0
 40
1
 40
1
 40
1
 40
1
 10
1.500534
 20
8.779092
 30
0.0
 10
1.343501
 20
8.780003
 30
0.0
 10
1.185578
 20
8.780003
 30
0.0
 10
1.185578
 20
8.937492
 30
0.0
  0
LWPOLYLINE
  5
10d
100
AcDbEntity
  8
0
 62
1
100
AcDbPolyline
 90
7
 70
0
 10
0.554812
 20
5.439455
 30
0.0
 10
0.555645
 20
6.226855
 30
0.0
 10
0.461167
 20
6.321344
 30
0.0
 10
0.461167
 20
7.628414
 30
0.0
 10
0.555656
 20
7.722903
 30
0.0
 10
0.555656
 20
8.150080
 30
0.0
 10
1.500534
 20
8.779092
 30
0.0
  0
LWPOLYLINE
  5
10e
100
AcDbEntity
  8
0
 62
1
100
AcDbPolyline
 90
6
 70
0
 10
1.185578
 20
8.937492
 30
0.0
 10
1.500078
 20
8.937492
 30
0.0
 10
2.445412
 20
8.937492
 30
0.0
 10
2.444956
 20
8.467247
 30
0.0
 10
2.445401
 20
8.467247
 30
0.0
 10
2.445423
 20
5.440533
 30
0.0
  0
SPLINE
  5
10f
100
AcDbEntity
  8
0
 62
1
100
AcDbSpline
 70
8
 71
3
 72
8
 73
4
 74
0
 40
0
 40
0
 40
0
 40
0
 40
1
 40
1
 40
1
 40
1
 10
12.350956
 20
9.140267
 30
0.0
 10
12.507989
 20
9.141178
 30
0.0
 10
12.665911
 20
9.141178
 30
0.0
 10
12.665911
 20
9.298667
 30
0.0
  0
LWPOLYLINE
  5
110
100
AcDbEntity
  8
0
 62
1
100
AcDbPolyline
 90
7
 70
0
 10
13.295833
 20
5.439478
 30
0.0
 10
13.295833
 20
6.201978
 30
0.0
 10
13.295833
 20
6.296467
 30
0.0
 10
13.295833
 20
7.997255
 30
0.0
 10
13.295833
 20
8.091744
 30
0.0
 10
13.295833
 20
8.511255
 30
0.0
 10
12.350956
 20
9.140267
 30
0.0
  0
LWPOLYLINE
  5
111
100
AcDbEntity
  8
0
 62
1
100
AcDbPolyline
 90
10
 70
0
 10
12.665911
 20
9.298667
 30
0.0
 10
12.351411
 20
9.298667
 30
0.0
 10
11.406078
 20
9.298667
 30
0.0
 10
11.406533
 20
8.828422
 30
0.0
 10
11.406100
 20
8.828422
 30
0.0
 10
11.405711
 20
7.077255
 30
0.0
 10
11.311833
 20
6.982755
 30
0.0
 10
11.311600
 20
6.321344
 30
0.0
 10
11.405411
 20
6.226855
 30
0.0
 10
11.405233
 20
5.439455
 30
0.0
  0
SPLINE
  5
112
100
AcDbEntity
  8
0
 62
1
100
AcDbSpline
 70
8
 71
3
 72
8
 73
4
 74
0
 40
0
 40
0
 40
0
 40
0
 40
1
 40
1
 40
1
 40
1
 10
2.445530
 20
4.147989
 30
0.0
 10
2.445530
 20
4.179355
 30
0.0
 10
2.478019
 20
4.180478
 30
0.0
 10
2.478019
 20
4.180478
 30
0.0
  0
LWPOLYLINE
  5
113
100
AcDbEntity
  8
0
 62
1
100
AcDbPolyline
 90
2
 70
0
 10
2.445408
 20
4.148111
 30
0.0
 10
2.445530
 20
4.147989
 30
0.0
  0
SPLINE
  5
114
100
AcDbEntity
  8
0
 62
1
100
AcDbSpline
 70
8
 71
3
 72
8
 73
4
 74
0
 40
0
 40
0
 40
0
 40
0
 40
1
 40
1
 40
1
 40
1
 10
4.335175
 20
4.179611
 30
0.0
 10
4.335175
 20
4.179611
 30
0.0
 10
4.365586
 20
4.181300
 30
0.0
 10
4.365586
 20
4.148955
 30
0.0
  0
LWPOLYLINE
  5
115
100
AcDbEntity
  8
0
 62
1
100
AcDbPolyline
 90
6
 70
0
 10
2.478019
 20
4.180478
 30
0.0
 10
2.949342
 20
4.180478
 30
0.0
 10
3.059419
 20
4.274022
 30
0.0
 10
3.484786
 20
4.274978
 30
0.0
 10
3.579275
 20
4.180478
 30
0.0
 10
4.335175
 20
4.179611
 30
0.0
  0
LWPOLYLINE
  5
116
100
AcDbEntity
  8
0
 62
1
100
AcDbPolyline
 90
25
 70
0
 10
4.365586
 20
4.148955
 30
0.0
 10
4.365586
 20
2.227711
 30
0.0
 10
4.398208
 20
2.196244
 30
0.0
 10
4.398175
 20
0.337111
 30
0.0
 10
4.398175
 20
0.304722
 30
0.0
 10
5.185575
 20
0.304722
 30
0.0
 10
5.280064
 20
0.210233
 30
0.0
 10
5.658019
 20
0.210233
 30
0.0
 10
5.752508
 20
0.210233
 30
0.0
 10
5.988744
 20
0.210233
 30
0.0
 10
6.083233
 20
0.210233
 30
0.0
 10
6.587133
 20
0.209367
 30
0.0
 10
6.681633
 20
0.304722
 30
0.0
 10
8.728933
 20
0.305589
 30
0.0
 10
8.823389
 20
0.210233
 30
0.0
 10
9.327322
 20
0.210233
 30
0.0
 10
9.516744
 20
0.210689
 30
0.0
 10
10.146666
 20
0.210689
 30
0.0
 10
10.177711
 20
0.210233
 30
0.0
 10
10.524177
 20
0.210233
 30
0.0
 10
10.618711
 20
0.305589
 30
0.0
 10
11.406067
 20
0.305589
 30
0.0
 10
11.406067
 20
0.337100
 30
0.0
 10
11.406067
 20
2.196222
 30
0.0
 10
11.406067
 20
2.227667
 30
0.0
  0
LWPOLYLINE
  5
117
100
AcDbEntity
  8
0
 62
1
100
AcDbPolyline
 90
5
 70
1
 10
8.728911
 20
5.470944
 30
0.0
 10
10.618667
 20
5.470944
 30
0.0
 10
10.618667
 20
5.439456
 30
0.0
 10
8.728911
 20
5.439456
 30
0.0
 10
8.728911
 20
5.470944
 30
0.0
  0
LWPOLYLINE
  5
118
100
AcDbEntity
  8
0
 62
1
100
AcDbPolyline
 90
5
 70
1
 10
5.184466
 20
5.462405
 30
0.0
 10
6.682822
 20
5.462405
 30
0.0
 10
6.682822
 20
5.437438
 30
0.0
 10
5.184466
 20
5.437438
 30
0.0
 10
5.184466
 20
5.462405
 30
0.0
  0
SPLINE
  5
119
100
AcDbEntity
  8
0
 62
1
100
AcDbSpline
 70
8
 71
3
 72
8
 73
4
 74
0
 40
0
 40
0
 40
0
 40
0
 40
1
 40
1
 40
1
 40
1
 10
2.445530
 20
5.471067
 30
0.0
 10
2.445530
 20
5.439700
 30
0.0
 10
2.478019
 20
5.438578
 30
0.0
 10
2.478019
 20
5.438578
 30
0.0
  0
LWPOLYLINE
  5
11a
100
AcDbEntity
  8
0
 62
1
100
AcDbPolyline
 90
2
 70
0
 10
2.445408
 20
5.470944
 30
0.0
 10
2.445530
 20
5.471067
 30
0.0
  0
SPLINE
  5
11b
100
AcDbEntity
  8
0
 62
1
100
AcDbSpline
 70
8
 71
3
 72
8
 73
4
 74
0
 40
0
 40
0
 40
0
 40
0
 40
1
 40
1
 40
1
 40
1
 10
4.335175
 20
5.439444
 30
0.0
 10
4.335175
 20
5.439444
 30
0.0
 10
4.372079
 20
5.438414
 30
0.0
 10
4.365586
 20
5.470100
 30
0.0
  0
LWPOLYLINE
  5
11c
100
AcDbEntity
  8
0
 62
1
100
AcDbPolyline
 90
6
 70
0
 10
2.478019
 20
5.438578
 30
0.0
 10
2.949353
 20
5.438578
 30
0.0
 10
3.059419
 20
5.345033
 30
0.0
 10
3.484786
 20
5.344078
 30
0.0
 10
3.579275
 20
5.438578
 30
0.0
 10
4.335175
 20
5.439444
 30
0.0
  0
LWPOLYLINE
  5
11d
100
AcDbEntity
  8
0
 62
1
100
AcDbPolyline
 90
25
 70
0
 10
4.365586
 20
5.470100
 30
0.0
 10
4.365586
 20
7.391344
 30
0.0
 10
4.398208
 20
7.422811
 30
0.0
 10
4.398175
 20
9.313478
 30
0.0
 10
4.460308
 20
9.313478
 30
0.0
 10
5.185608
 20
9.312611
 30
0.0
 10
5.280097
 20
9.407100
 30
0.0
 10
5.658019
 20
9.407967
 30
0.0
 10
5.752508
 20
9.407967
 30
0.0
 10
5.988711
 20
9.407967
 30
0.0
 10
6.083200
 20
9.407967
 30
0.0
 10
6.587144
 20
9.407967
 30
0.0
 10
6.681655
 20
9.312611
 30
0.0
 10
8.728889
 20
9.312611
 30
0.0
 10
8.823344
 20
9.407967
 30
0.0
 10
9.327300
 20
9.407967
 30
0.0
 10
9.516722
 20
9.407511
 30
0.0
 10
10.146644
 20
9.407511
 30
0.0
 10
10.177689
 20
9.407967
 30
0.0
 10
10.524133
 20
9.407967
 30
0.0
 10
10.618666
 20
9.312611
 30
0.0
 10
11.406067
 20
9.312611
 30
0.0
 10
11.406067
 20
9.281967
 30
0.0
 10
11.406067
 20
7.422844
 30
0.0
 10
11.406067
 20
7.391400
 30
0.0
  0
LWPOLYLINE
  5
11e
100
AcDbEntity
  8
0
 62
1
100
AcDbPolyline
 90
5
 70
1
 10
2.791876
 20
9.407978
 30
0.0
 10
4.051709
 20
9.407978
 30
0.0
 10
4.051709
 20
7.581189
 30
0.0
 10
2.791876
 20
7.581189
 30
0.0
 10
2.791876
 20
9.407978
 30
0.0
  0
LWPOLYLINE
  5
11f
100
AcDbEntity
  8
0
 62
1
100
AcDbPolyline
 90
5
 70
1
 10
3.106876
 20
8.792022
 30
0.0
 10
3.736787
 20
8.792022
 30
0.0
 10
3.736787
 20
8.476711
 30
0.0
 10
3.106876
 20
8.476711
 30
0.0
 10
3.106876
 20
8.792022
 30
0.0
  0
LWPOLYLINE
  5
120
100
AcDbEntity
  8
0
 62
1
100
AcDbPolyline
 90
5
 70
1
 10
2.791876
 20
7.423722
 30
0.0
 10
4.051709
 20
7.423722
 30
0.0
 10
4.051709
 20
5.596933
 30
0.0
 10
2.791876
 20
5.596933
 30
0.0
 10
2.791876
 20
7.423722
 30
0.0
  0
LWPOLYLINE
  5
121
100
AcDbEntity
  8
0
 62
1
100
AcDbPolyline
 90
5
 70
1
 10
3.106876
 20
6.807767
 30
0.0
 10
3.736787
 20
6.807767
 30
0.0
 10
3.736787
 20
6.492456
 30
0.0
 10
3.106876
 20
6.492456
 30
0.0
 10
3.106876
 20
6.807767
 30
0.0
  0
LWPOLYLINE
  5
122
100
AcDbEntity
  8
0
 62
1
100
AcDbPolyline
 90
5
 70
1
 10
2.791876
 20
3.990622
 30
0.0
 10
4.051709
 20
3.990622
 30
0.0
 10
4.051709
 20
2.163844
 30
0.0
 10
2.791876
 20
2.163844
 30
0.0
 10
2.791876
 20
3.990622
 30
0.0
  0
LWPOLYLINE
  5
123
100
AcDbEntity
  8
0
 62
1
100
AcDbPolyline
 90
5
 70
1
 10
3.106876
 20
3.374689
 30
0.0
 10
3.736787
 20
3.374689
 30
0.0
 10
3.736787
 20
3.059366
 30
0.0
 10
3.106876
 20
3.059366
 30
0.0
 10
3.106876
 20
3.374689
 30
0.0
  0
LWPOLYLINE
  5
124
100
AcDbEntity
  8
0
 62
1
100
AcDbPolyline
 90
5
 70
1
 10
2.791876
 20
2.006377
 30
0.0
 10
4.051709
 20
2.006377
 30
0.0
 10
4.051709
 20
0.179588
 30
0.0
 10
2.791876
 20
0.179588
 30
0.0
 10
2.791876
 20
2.006377
 30
0.0
  0
LWPOLYLINE
  5
125
100
AcDbEntity
  8
0
 62
1
100
AcDbPolyline
 90
5
 70
1
 10
3.106876
 20
1.390422
 30
0.0
 10
3.736787
 20
1.390422
 30
0.0
 10
3.736787
 20
1.075111
 30
0.0
 10
3.106876
 20
1.075111
 30
0.0
 10
3.106876
 20
1.390422
 30
0.0
  0
SPLINE
  5
126
100
AcDbEntity
  8
0
 62
1
100
AcDbSpline
 70
8
 71
3
 72
8
 73
4
 74
0
 40
0
 40
0
 40
0
 40
0
 40
1
 40
1
 40
1
 40
1
 10
1.500540
 20
0.839963
 30
0.0
 10
1.343506
 20
0.839052
 30
0.0
 10
1.185584
 20
0.839052
 30
0.0
 10
1.185584
 20
0.681563
 30
0.0
  0
LWPOLYLINE
  5
127
100
AcDbEntity
  8
0
 62
1
100
AcDbPolyline
 90
7
 70
0
 10
0.555662
 20
4.179611
 30
0.0
 10
0.555651
 20
3.392211
 30
0.0
 10
0.461173
 20
3.297722
 30
0.0
 10
0.461173
 20
1.990641
 30
0.0
 10
0.555662
 20
1.896152
 30
0.0
 10
0.555662
 20
1.468974
 30
0.0
 10
1.500540
 20
0.839963
 30
0.0
  0
SPLINE
  5
128
100
AcDbEntity
  8
0
 62
1
100
AcDbSpline
 70
8
 71
3
 72
8
 73
4
 74
0
 40
0
 40
0
 40
0
 40
0
 40
1
 40
1
 40
1
 40
1
 10
4.335195
 20
4.179622
 30
0.0
 10
4.335195
 20
4.179622
 30
0.0
 10
4.365606
 20
4.181311
 30
0.0
 10
4.365606
 20
4.148967
 30
0.0
  0
LWPOLYLINE
  5
129
100
AcDbEntity
  8
0
 62
1
100
AcDbPolyline
 90
12
 70
0
 10
1.185584
 20
0.681563
 30
0.0
 10
1.500084
 20
0.681563
 30
0.0
 10
2.445417
 20
0.681563
 30
0.0
 10
2.444962
 20
1.151808
 30
0.0
 10
2.445406
 20
1.151808
 30
0.0
 10
2.445428
 20
4.178533
 30
0.0
 10
2.478040
 20
4.180489
 30
0.0
 10
2.949362
 20
4.180489
 30
0.0
 10
3.059440
 20
4.274033
 30
0.0
 10
3.484806
 20
4.274989
 30
0.0
 10
3.579295
 20
4.180489
 30
0.0
 10
4.335195
 20
4.179622
 30
0.0
  0
LWPOLYLINE
  5
12a
100
AcDbEntity
  8
0
 62
1
100
AcDbPolyline
 90
4
 70
0
 10
4.365606
 20
4.148967
 30
0.0
 10
4.365606
 20
2.227722
 30
0.0
 10
4.398228
 20
2.196255
 30
0.0
 10
4.398206
 20
2.196255
 30
0.0
  0
SPLINE
  5
12b
100
AcDbEntity
  8
0
 62
1
100
AcDbSpline
 70
8
 71
3
 72
8
 73
4
 74
0
 40
0
 40
0
 40
0
 40
0
 40
1
 40
1
 40
1
 40
1
 10
12.665933
 20
0.320400
 30
0.0
 10
12.665933
 20
0.477889
 30
0.0
 10
12.508011
 20
0.477889
 30
0.0
 10
12.350978
 20
0.478800
 30
0.0
  0
LWPOLYLINE
  5
12c
100
AcDbEntity
  8
0
 62
1
100
AcDbPolyline
 90
6
 70
0
 10
11.406111
 20
2.196233
 30
0.0
 10
11.406111
 20
0.790644
 30
0.0
 10
11.406556
 20
0.790644
 30
0.0
 10
11.406100
 20
0.320400
 30
0.0
 10
12.351433
 20
0.320400
 30
0.0
 10
12.665933
 20
0.320400
 30
0.0
  0
SPLINE
  5
12d
100
AcDbEntity
  8
0
 62
1
100
AcDbSpline
 70
8
 71
3
 72
8
 73
4
 74
0
 40
0
 40
0
 40
0
 40
0
 40
1
 40
1
 40
1
 40
1
 10
12.350978
 20
9.140267
 30
0.0
 10
12.508011
 20
9.141178
 30
0.0
 10
12.665933
 20
9.141178
 30
0.0
 10
12.665933
 20
9.298667
 30
0.0
  0
LWPOLYLINE
  5
12e
100
AcDbEntity
  8
0
 62
1
100
AcDbPolyline
 90
16
 70
0
 10
12.350978
 20
0.478800
 30
0.0
 10
13.295856
 20
1.107811
 30
0.0
 10
13.295856
 20
1.527322
 30
0.0
 10
13.295856
 20
1.621811
 30
0.0
 10
13.295856
 20
3.322589
 30
0.0
 10
13.295856
 20
3.417078
 30
0.0
 10
13.295856
 20
4.180855
 30
0.0
 10
13.295856
 20
4.180855
 30
0.0
 10
13.295856
 20
5.440355
 30
0.0
 10
13.295856
 20
5.470944
 30
0.0
 10
13.295856
 20
6.201978
 30
0.0
 10
13.295856
 20
6.296467
 30
0.0
 10
13.295856
 20
7.997255
 30
0.0
 10
13.295856
 20
8.091744
 30
0.0
 10
13.295856
 20
8.511255
 30
0.0
 10
12.350978
 20
9.140267
 30
0.0
  0
LWPOLYLINE
  5
12f
100
AcDbEntity
  8
0
 62
1
100
AcDbPolyline
 90
6
 70
0
 10
12.665933
 20
9.298667
 30
0.0
 10
12.351433
 20
9.298667
 30
0.0
 10
11.406100
 20
9.298667
 30
0.0
 10
11.406556
 20
8.828422
 30
0.0
 10
11.406122
 20
8.828422
 30
0.0
 10
11.406122
 20
7.423711
 30
0.0
  0
SPLINE
  5
130
100
AcDbEntity
  8
0
 62
1
100
AcDbSpline
 70
8
 71
3
 72
8
 73
4
 74
0
 40
0
 40
0
 40
0
 40
0
 40
1
 40
1
 40
1
 40
1
 10
4.365617
 20
5.470111
 30
0.0
 10
4.365617
 20
5.437767
 30
0.0
 10
4.335206
 20
5.439455
 30
0.0
 10
4.335206
 20
5.439455
 30
0.0
  0
LWPOLYLINE
  5
131
100
AcDbEntity
  8
0
 62
1
100
AcDbPolyline
 90
3
 70
0
 10
4.398240
 20
7.422822
 30
0.0
 10
4.365617
 20
7.391355
 30
0.0
 10
4.365617
 20
5.470111
 30
0.0
  0
SPLINE
  5
132
100
AcDbEntity
  8
0
 62
1
100
AcDbSpline
 70
8
 71
3
 72
8
 73
4
 74
0
 40
0
 40
0
 40
0
 40
0
 40
1
 40
1
 40
1
 40
1
 10
1.185606
 20
8.937536
 30
0.0
 10
1.185606
 20
8.780048
 30
0.0
 10
1.343528
 20
8.780048
 30
0.0
 10
1.500562
 20
8.779136
 30
0.0
  0
LWPOLYLINE
  5
133
100
AcDbEntity
  8
0
 62
1
100
AcDbPolyline
 90
12
 70
0
 10
4.335206
 20
5.439455
 30
0.0
 10
3.579306
 20
5.438589
 30
0.0
 10
3.484817
 20
5.344089
 30
0.0
 10
3.059451
 20
5.345044
 30
0.0
 10
2.949384
 20
5.438589
 30
0.0
 10
2.478051
 20
5.438589
 30
0.0
 10
2.445462
 20
5.440544
 30
0.0
 10
2.445440
 20
8.467292
 30
0.0
 10
2.444995
 20
8.467292
 30
0.0
 10
2.445451
 20
8.937536
 30
0.0
 10
1.500117
 20
8.937536
 30
0.0
 10
1.185606
 20
8.937536
 30
0.0
  0
LWPOLYLINE
  5
134
100
AcDbEntity
  8
0
 62
1
100
AcDbPolyline
 90
7
 70
0
 10
1.500562
 20
8.779136
 30
0.0
 10
0.555684
 20
8.150114
 30
0.0
 10
0.555684
 20
7.722936
 30
0.0
 10
0.461195
 20
7.628448
 30
0.0
 10
0.461195
 20
6.321344
 30
0.0
 10
0.555673
 20
6.226855
 30
0.0
 10
0.555684
 20
5.439455
 30
0.0
  0
LWPOLYLINE
  5
135
100
AcDbEntity
  8
0
 62
5
100
AcDbPolyline
 90
2
 70
0
 10
4.365612
 20
2.227711
 30
0.0
 10
11.403052
 20
2.227711
 30
0.0
  0
LWPOLYLINE
  5
136
100
AcDbEntity
  8
0
 62
5
100
AcDbPolyline
 90
2
 70
0
 10
0.555678
 20
5.440322
 30
0.0
 10
2.445444
 20
5.440355
 30
0.0
  0
LWPOLYLINE
  5
137
100
AcDbEntity
  8
0
 62
5
100
AcDbPolyline
 90
2
 70
0
 10
2.446544
 20
4.180478
 30
0.0
 10
0.555689
 20
4.180489
 30
0.0
  0
LWPOLYLINE
  5
138
100
AcDbEntity
  8
0
 62
5
100
AcDbPolyline
 90
2
 70
0
 10
2.446561
 20
5.440322
 30
0.0
 10
2.446561
 20
4.180489
 30
0.0
  0
LWPOLYLINE
  5
139
100
AcDbEntity
  8
0
 62
5
100
AcDbPolyline
 90
2
 70
0
 10
2.478050
 20
4.180478
 30
0.0
 10
2.476961
 20
5.440355
 30
0.0
  0
LWPOLYLINE
  5
13a
100
AcDbEntity
  8
0
 62
5
100
AcDbPolyline
 90
2
 70
0
 10
4.365616
 20
5.440355
 30
0.0
 10
4.366705
 20
4.180478
 30
0.0
  0
LWPOLYLINE
  5
13b
100
AcDbEntity
  8
0
 62
5
100
AcDbPolyline
 90
2
 70
0
 10
11.406083
 20
4.148955
 30
0.0
 10
4.365612
 20
4.148955
 30
0.0
  0
LWPOLYLINE
  5
13c
100
AcDbEntity
  8
0
 62
5
100
AcDbPolyline
 90
2
 70
0
 10
4.365612
 20
5.471856
 30
0.0
 10
11.406083
 20
5.471845
 30
0.0
  0
LWPOLYLINE
  5
13d
100
AcDbEntity
  8
0
 62
5
100
AcDbPolyline
 90
2
 70
0
 10
4.365612
 20
7.393086
 30
0.0
 10
11.403052
 20
7.393075
 30
0.0
  0
LWPOLYLINE
  5
13e
100
AcDbEntity
  8
0
 62
5
100
AcDbPolyline
 90
2
 70
0
 10
11.406054
 20
4.180855
 30
0.0
 10
11.406054
 20
5.440355
 30
0.0
  0
LWPOLYLINE
  5
13f
100
AcDbEntity
  8
0
 62
5
100
AcDbPolyline
 90
2
 70
0
 10
11.406100
 20
4.180855
 30
0.0
 10
13.295856
 20
4.180855
 30
0.0
  0
LWPOLYLINE
  5
140
100
AcDbEntity
  8
0
 62
5
100
AcDbPolyline
 90
2
 70
0
 10
13.295832
 20
5.440355
 30
0.0
 10
11.406054
 20
5.440355
 30
0.0
  0
ENDSEC
  0
SECTION
  2
OBJECTS
  0
DICTIONARY
  5
C
330
0
100
AcDbDictionary
  3
ACAD_GROUP
350
D
  3
ACAD_MLINESTYLE
350
17
  0
DICTIONARY
  5
D
330
C
100
AcDbDictionary
  0
DICTIONARY
  5
1A
330
C
100
AcDbDictionary
  0
DICTIONARY
  5
17
330
C
100
AcDbDictionary
  3
STANDARD
350
18
  0
DICTIONARY
  5
19
330
C
100
AcDbDictionary
  0
ENDSEC
  0
EOF
