  0
SECTION
  2
HEADER
  9
$ACADVER
  1
AC1014
  9
$HANDSEED
  5
FFFF
  9
$MEASUREMENT
 70
     1
  0
ENDSEC
  0
SECTION
  2
TABLES
  0
TABLE
  2
VPORT
  5
8
330
0
100
AcDbSymbolTable
 70
     4
  0
VPORT
  5
2E
330
8
100
AcDbSymbolTableRecord
100
AcDbViewportTableRecord
  2
*ACTIVE
 70
     0
 10
0.0
 20
0.0
 11
1.0
 21
1.0
 12
210.0
 22
148.5
 13
0.0
 23
0.0
 14
10.0
 24
10.0
 15
10.0
 25
10.0
 16
0.0
 26
0.0
 36
1.0
 17
0.0
 27
0.0
 37
0.0
 40
341.0
 41
1.24
 42
50.0
 43
0.0
 44
0.0
 50
0.0
 51
0.0
 71
     0
 72
   100
 73
     1
 74
     3
 75
     0
 76
     0
 77
     0
 78
     0
  0
ENDTAB
  0
TABLE
  2
LTYPE
  5
5
330
0
100
AcDbSymbolTable
 70
     1
  0
LTYPE
  5
14
330
5
100
AcDbSymbolTableRecord
100
AcDbLinetypeTableRecord
  2
BYBLOCK
 70
     0
  3

 72
    65
 73
     0
 40
0.0
  0
LTYPE
  5
15
330
5
100
AcDbSymbolTableRecord
100
AcDbLinetypeTableRecord
  2
BYLAYER
 70
     0
  3

 72
    65
 73
     0
 40
0.0
  0
LTYPE
  5
16
330
5
100
AcDbSymbolTableRecord
100
AcDbLinetypeTableRecord
  2
CONTINUOUS
 70
     0
  3
Solid line
 72
    65
 73
     0
 40
0.0
  0
ENDTAB
  0
TABLE
  2
LAYER
  5
2
100
AcDbSymbolTable
 70
1
  0
LAYER
  5
50
100
AcDbSymbolTableRecord
100
AcDbLayerTableRecord
  2
0
 70
0
  6
CONTINUOUS
  0
ENDTAB
  0
TABLE
  2
STYLE
  5
3
330
0
100
AcDbSymbolTable
 70
     1
  0
STYLE
  5
11
330
3
100
AcDbSymbolTableRecord
100
AcDbTextStyleTableRecord
  2
STANDARD
 70
     0
 40
0.0
 41
1.0
 50
0.0
 71
     0
 42
2.5
  3
txt
  4

  0
ENDTAB
  0
TABLE
  2
VIEW
  5
6
330
0
100
AcDbSymbolTable
 70
     0
  0
ENDTAB
  0
TABLE
  2
UCS
  5
7
330
0
100
AcDbSymbolTable
 70
     0
  0
ENDTAB
  0
TABLE
  2
APPID
  5
9
330
0
100
AcDbSymbolTable
 70
     2
  0
APPID
  5
12
330
9
100
AcDbSymbolTableRecord
100
AcDbRegAppTableRecord
  2
ACAD
 70
     0
  0
ENDTAB
  0
TABLE
  2
DIMSTYLE
  5
A
330
0
100
AcDbSymbolTable
 70
     1
  0
DIMSTYLE
105
27
330
A
100
AcDbSymbolTableRecord
100
AcDbDimStyleTableRecord
  2
ISO-25
 70
     0
  3

  4

  5

  6

  7

 40
1.0
 41
2.5
 42
0.625
 43
3.75
 44
1.25
 45
0.0
 46
0.0
 47
0.0
 48
0.0
140
2.5
141
2.5
142
0.0
143
0.03937007874016
144
1.0
145
0.0
146
1.0
147
0.625
 71
     0
 72
     0
 73
     0
 74
     0
 75
     0
 76
     0
 77
     1
 78
     8
170
     0
171
     3
172
     1
173
     0
174
     0
175
     0
176
     0
177
     0
178
     0
270
     2
271
     2
272
     2
273
     2
274
     3
340
11
275
     0
280
     0
281
     0
282
     0
283
     0
284
     8
285
     0
286
     0
287
     3
288
     0
  0
ENDTAB
  0
TABLE
  2
BLOCK_RECORD
  5
1
330
0
100
AcDbSymbolTable
 70
     1
  0
BLOCK_RECORD
  5
1F
330
1
100
AcDbSymbolTableRecord
100
AcDbBlockTableRecord
  2
*MODEL_SPACE
  0
BLOCK_RECORD
  5
1B
330
1
100
AcDbSymbolTableRecord
100
AcDbBlockTableRecord
  2
*PAPER_SPACE
  0
ENDTAB
  0
ENDSEC
  0
SECTION
  2
BLOCKS
  0
BLOCK
  5
20
330
1F
100
AcDbEntity
  8
0
100
AcDbBlockBegin
  2
*MODEL_SPACE
 70
     0
 10
0.0
 20
0.0
 30
0.0
  3
*MODEL_SPACE
  1

  0
ENDBLK
  5
21
330
1F
100
AcDbEntity
  8
0
100
AcDbBlockEnd
  0
BLOCK
  5
1C
330
1B
100
AcDbEntity
 67
     1
  8
0
100
AcDbBlockBegin
  2
*PAPER_SPACE
  1

  0
ENDBLK
  5
1D
330
1B
100
AcDbEntity
 67
     1
  8
0
100
AcDbBlockEnd
  0
ENDSEC
  0
SECTION
  2
ENTITIES
  0
LWPOLYLINE
  5
100
100
AcDbEntity
  8
0
 62
1
100
AcDbPolyline
 90
2
 70
0
 10
0.587563
 20
5.348856
 30
0.0
 10
0.587563
 20
6.671722
 30
0.0
  0
LWPOLYLINE
  5
101
100
AcDbEntity
  8
0
 62
1
100
AcDbPolyline
 90
2
 70
0
 10
2.477361
 20
5.380744
 30
0.0
 10
2.477338
 20
5.380744
 30
0.0
  0
LWPOLYLINE
  5
102
100
AcDbEntity
  8
0
 62
1
100
AcDbPolyline
 90
5
 70
1
 10
10.051367
 20
6.324844
 30
0.0
 10
10.682055
 20
6.324844
 30
0.0
 10
10.682055
 20
5.694933
 30
0.0
 10
10.051367
 20
5.694933
 30
0.0
 10
10.051367
 20
6.324844
 30
0.0
  0
LWPOLYLINE
  5
103
100
AcDbEntity
  8
0
 62
5
100
AcDbPolyline
 90
2
 70
0
 10
2.445830
 20
5.348856
 30
0.0
 10
0.587563
 20
5.348856
 30
0.0
  0
LWPOLYLINE
  5
104
100
AcDbEntity
  8
0
 62
5
100
AcDbPolyline
 90
2
 70
0
 10
0.587563
 20
6.671689
 30
0.0
 10
2.445830
 20
6.671689
 30
0.0
  0
LWPOLYLINE
  5
105
100
AcDbEntity
  8
0
 62
5
100
AcDbPolyline
 90
2
 70
0
 10
2.477327
 20
6.640200
 30
0.0
 10
2.477327
 20
5.380344
 30
0.0
  0
LWPOLYLINE
  5
106
100
AcDbEntity
  8
0
 62
5
100
AcDbPolyline
 90
2
 70
0
 10
9.485244
 20
6.640200
 30
0.0
 10
2.477401
 20
6.640233
 30
0.0
  0
LWPOLYLINE
  5
107
100
AcDbEntity
  8
0
 62
5
100
AcDbPolyline
 90
2
 70
0
 10
9.485223
 20
5.380344
 30
0.0
 10
2.477422
 20
5.380744
 30
0.0
  0
LWPOLYLINE
  5
108
100
AcDbEntity
  8
0
 62
5
100
AcDbPolyline
 90
2
 70
0
 10
9.548300
 20
5.380344
 30
0.0
 10
9.548300
 20
6.640200
 30
0.0
  0
LWPOLYLINE
  5
109
100
AcDbEntity
  8
0
 62
5
100
AcDbPolyline
 90
2
 70
0
 10
11.437988
 20
5.348856
 30
0.0
 10
9.642711
 20
5.348856
 30
0.0
  0
SPLINE
  5
10a
100
AcDbEntity
  8
0
 62
7
100
AcDbSpline
 70
8
 71
3
 72
8
 73
4
 74
0
 40
0
 40
0
 40
0
 40
0
 40
1
 40
1
 40
1
 40
1
 10
11.437989
 20
5.348856
 30
0.0
 10
11.437989
 20
5.262267
 30
0.0
 10
11.437989
 20
4.831322
 30
0.0
 10
11.437989
 20
4.750433
 30
0.0
  0
SPLINE
  5
10b
100
AcDbEntity
  8
0
 62
7
100
AcDbSpline
 70
8
 71
3
 72
8
 73
4
 74
0
 40
0
 40
0
 40
0
 40
0
 40
1
 40
1
 40
1
 40
1
 10
11.437989
 20
4.750433
 30
0.0
 10
11.437989
 20
4.592944
 30
0.0
 10
11.469489
 20
4.592944
 30
0.0
 10
10.587600
 20
4.592944
 30
0.0
  0
SPLINE
  5
10c
100
AcDbEntity
  8
0
 62
7
100
AcDbSpline
 70
8
 71
3
 72
8
 73
4
 74
0
 40
0
 40
0
 40
0
 40
0
 40
1
 40
1
 40
1
 40
1
 10
10.587600
 20
4.592944
 30
0.0
 10
9.548233
 20
4.592944
 30
0.0
 10
9.548233
 20
4.592944
 30
0.0
 10
9.548233
 20
4.750433
 30
0.0
  0
SPLINE
  5
10d
100
AcDbEntity
  8
0
 62
7
100
AcDbSpline
 70
8
 71
3
 72
8
 73
4
 74
0
 40
0
 40
0
 40
0
 40
0
 40
1
 40
1
 40
1
 40
1
 10
9.548233
 20
4.750433
 30
0.0
 10
9.548233
 20
4.770822
 30
0.0
 10
9.642711
 20
5.295744
 30
0.0
 10
9.642711
 20
5.317356
 30
0.0
  0
LWPOLYLINE
  5
10e
100
AcDbEntity
  8
0
 62
5
100
AcDbPolyline
 90
2
 70
0
 10
9.642711
 20
6.671333
 30
0.0
 10
11.437988
 20
6.671689
 30
0.0
  0
SPLINE
  5
10f
100
AcDbEntity
  8
0
 62
1
100
AcDbSpline
 70
8
 71
3
 72
8
 73
4
 74
0
 40
0
 40
0
 40
0
 40
0
 40
1
 40
1
 40
1
 40
1
 10
0.902540
 20
4.182233
 30
0.0
 10
0.745051
 20
4.181344
 30
0.0
 10
0.587574
 20
4.182233
 30
0.0
 10
0.587574
 20
4.024767
 30
0.0
  0
LWPOLYLINE
  5
110
100
AcDbEntity
  8
0
 62
1
100
AcDbPolyline
 90
4
 70
0
 10
0.587563
 20
5.348856
 30
0.0
 10
0.587585
 20
4.497667
 30
0.0
 10
0.588018
 20
4.497667
 30
0.0
 10
0.902540
 20
4.182233
 30
0.0
  0
SPLINE
  5
111
100
AcDbEntity
  8
0
 62
1
100
AcDbSpline
 70
8
 71
3
 72
8
 73
4
 74
0
 40
0
 40
0
 40
0
 40
0
 40
1
 40
1
 40
1
 40
1
 10
2.477351
 20
4.024767
 30
0.0
 10
2.477351
 20
4.182233
 30
0.0
 10
2.319863
 20
4.182233
 30
0.0
 10
2.162829
 20
4.183144
 30
0.0
  0
LWPOLYLINE
  5
112
100
AcDbEntity
  8
0
 62
1
100
AcDbPolyline
 90
4
 70
0
 10
0.587574
 20
4.024767
 30
0.0
 10
0.902540
 20
4.024767
 30
0.0
 10
2.162829
 20
4.024767
 30
0.0
 10
2.477351
 20
4.024767
 30
0.0
  0
SPLINE
  5
113
100
AcDbEntity
  8
0
 62
1
100
AcDbSpline
 70
8
 71
3
 72
8
 73
4
 74
0
 40
0
 40
0
 40
0
 40
0
 40
1
 40
1
 40
1
 40
1
 10
2.477351
 20
5.348056
 30
0.0
 10
2.477351
 20
5.348056
 30
0.0
 10
2.545306
 20
5.055743
 30
0.0
 10
2.675272
 20
5.055743
 30
0.0
  0
SPLINE
  5
114
100
AcDbEntity
  8
0
 62
1
100
AcDbSpline
 70
8
 71
3
 72
8
 73
4
 74
0
 40
0
 40
0
 40
0
 40
0
 40
1
 40
1
 40
1
 40
1
 10
2.675272
 20
5.055743
 30
0.0
 10
2.907025
 20
5.055743
 30
0.0
 10
2.990949
 20
5.053458
 30
0.0
 10
3.339574
 20
5.053458
 30
0.0
  0
SPLINE
  5
115
100
AcDbEntity
  8
0
 62
1
100
AcDbSpline
 70
8
 71
3
 72
8
 73
4
 74
0
 40
0
 40
0
 40
0
 40
0
 40
1
 40
1
 40
1
 40
1
 10
3.339574
 20
5.053458
 30
0.0
 10
3.437969
 20
5.053458
 30
0.0
 10
3.476082
 20
5.025239
 30
0.0
 10
3.520408
 20
4.906525
 30
0.0
  0
SPLINE
  5
116
100
AcDbEntity
  8
0
 62
1
100
AcDbSpline
 70
8
 71
3
 72
8
 73
4
 74
0
 40
0
 40
0
 40
0
 40
0
 40
1
 40
1
 40
1
 40
1
 10
3.520408
 20
4.906525
 30
0.0
 10
3.642531
 20
4.579457
 30
0.0
 10
3.889433
 20
3.994522
 30
0.0
 10
3.889433
 20
3.994522
 30
0.0
  0
SPLINE
  5
117
100
AcDbEntity
  8
0
 62
1
100
AcDbSpline
 70
8
 71
3
 72
8
 73
4
 74
0
 40
0
 40
0
 40
0
 40
0
 40
1
 40
1
 40
1
 40
1
 10
3.889433
 20
3.994522
 30
0.0
 10
3.889433
 20
3.994522
 30
0.0
 10
3.913056
 20
3.923653
 30
0.0
 10
3.964236
 20
3.852783
 30
0.0
  0
SPLINE
  5
118
100
AcDbEntity
  8
0
 62
1
100
AcDbSpline
 70
8
 71
3
 72
8
 73
4
 74
0
 40
0
 40
0
 40
0
 40
0
 40
1
 40
1
 40
1
 40
1
 10
3.964236
 20
3.852783
 30
0.0
 10
4.015417
 20
3.781914
 30
0.0
 10
4.094156
 20
3.711044
 30
0.0
 10
4.204389
 20
3.711044
 30
0.0
  0
SPLINE
  5
119
100
AcDbEntity
  8
0
 62
1
100
AcDbSpline
 70
8
 71
3
 72
8
 73
4
 74
0
 40
0
 40
0
 40
0
 40
0
 40
1
 40
1
 40
1
 40
1
 10
4.204389
 20
3.711044
 30
0.0
 10
4.429322
 20
3.711044
 30
0.0
 10
4.351167
 20
3.711056
 30
0.0
 10
8.697844
 20
3.711056
 30
0.0
  0
SPLINE
  5
11a
100
AcDbEntity
  8
0
 62
1
100
AcDbSpline
 70
8
 71
3
 72
8
 73
4
 74
0
 40
0
 40
0
 40
0
 40
0
 40
1
 40
1
 40
1
 40
1
 10
8.697844
 20
3.711056
 30
0.0
 10
8.697844
 20
3.711056
 30
0.0
 10
8.921344
 20
3.711033
 30
0.0
 10
9.012822
 20
3.994522
 30
0.0
  0
LWPOLYLINE
  5
11b
100
AcDbEntity
  8
0
 62
1
100
AcDbPolyline
 90
3
 70
0
 10
2.162829
 20
4.183144
 30
0.0
 10
2.477351
 20
4.497667
 30
0.0
 10
2.477351
 20
5.348056
 30
0.0
  0
SPLINE
  5
11c
100
AcDbEntity
  8
0
 62
1
100
AcDbSpline
 70
8
 71
3
 72
8
 73
4
 74
0
 40
0
 40
0
 40
0
 40
0
 40
1
 40
1
 40
1
 40
1
 10
9.516756
 20
5.348856
 30
0.0
 10
9.548233
 20
5.380344
 30
0.0
 10
9.642733
 20
5.348856
 30
0.0
 10
9.642733
 20
5.317356
 30
0.0
  0
LWPOLYLINE
  5
11d
100
AcDbEntity
  8
0
 62
1
100
AcDbPolyline
 90
2
 70
0
 10
9.012822
 20
3.994522
 30
0.0
 10
9.516756
 20
5.348856
 30
0.0
  0
LWPOLYLINE
  5
11e
100
AcDbEntity
  8
0
 62
1
100
AcDbPolyline
 90
5
 70
1
 10
0.997030
 20
5.537822
 30
0.0
 10
0.745063
 20
5.537822
 30
0.0
 10
0.745041
 20
5.380733
 30
0.0
 10
0.997030
 20
5.380344
 30
0.0
 10
0.997030
 20
5.537822
 30
0.0
  0
SPLINE
  5
11f
100
AcDbEntity
  8
0
 62
1
100
AcDbSpline
 70
8
 71
3
 72
8
 73
4
 74
0
 40
0
 40
0
 40
0
 40
0
 40
1
 40
1
 40
1
 40
1
 10
11.437989
 20
6.671698
 30
0.0
 10
11.437989
 20
6.758287
 30
0.0
 10
11.437989
 20
7.189232
 30
0.0
 10
11.437989
 20
7.270121
 30
0.0
  0
SPLINE
  5
120
100
AcDbEntity
  8
0
 62
1
100
AcDbSpline
 70
8
 71
3
 72
8
 73
4
 74
0
 40
0
 40
0
 40
0
 40
0
 40
1
 40
1
 40
1
 40
1
 10
11.437989
 20
7.270121
 30
0.0
 10
11.437989
 20
7.427610
 30
0.0
 10
11.469489
 20
7.427610
 30
0.0
 10
10.587600
 20
7.427610
 30
0.0
  0
SPLINE
  5
121
100
AcDbEntity
  8
0
 62
1
100
AcDbSpline
 70
8
 71
3
 72
8
 73
4
 74
0
 40
0
 40
0
 40
0
 40
0
 40
1
 40
1
 40
1
 40
1
 10
10.587600
 20
7.427610
 30
0.0
 10
9.548233
 20
7.427610
 30
0.0
 10
9.548233
 20
7.427610
 30
0.0
 10
9.548233
 20
7.270121
 30
0.0
  0
SPLINE
  5
122
100
AcDbEntity
  8
0
 62
1
100
AcDbSpline
 70
8
 71
3
 72
8
 73
4
 74
0
 40
0
 40
0
 40
0
 40
0
 40
1
 40
1
 40
1
 40
1
 10
9.548233
 20
7.270121
 30
0.0
 10
9.548233
 20
7.249732
 30
0.0
 10
9.642711
 20
6.724810
 30
0.0
 10
9.642711
 20
6.703198
 30
0.0
  0
LWPOLYLINE
  5
123
100
AcDbEntity
  8
0
 62
1
100
AcDbPolyline
 90
2
 70
0
 10
5.176678
 20
8.370400
 30
0.0
 10
5.176156
 20
8.370400
 30
0.0
  0
SPLINE
  5
124
100
AcDbEntity
  8
0
 62
1
100
AcDbSpline
 70
8
 71
3
 72
8
 73
4
 74
0
 40
0
 40
0
 40
0
 40
0
 40
1
 40
1
 40
1
 40
1
 10
0.902540
 20
7.838321
 30
0.0
 10
0.745051
 20
7.839210
 30
0.0
 10
0.587574
 20
7.838321
 30
0.0
 10
0.587574
 20
7.995787
 30
0.0
  0
LWPOLYLINE
  5
125
100
AcDbEntity
  8
0
 62
1
100
AcDbPolyline
 90
4
 70
0
 10
0.587563
 20
6.671698
 30
0.0
 10
0.587585
 20
7.522887
 30
0.0
 10
0.588018
 20
7.522887
 30
0.0
 10
0.902540
 20
7.838321
 30
0.0
  0
SPLINE
  5
126
100
AcDbEntity
  8
0
 62
1
100
AcDbSpline
 70
8
 71
3
 72
8
 73
4
 74
0
 40
0
 40
0
 40
0
 40
0
 40
1
 40
1
 40
1
 40
1
 10
2.477351
 20
7.995787
 30
0.0
 10
2.477351
 20
7.838321
 30
0.0
 10
2.319863
 20
7.838321
 30
0.0
 10
2.162829
 20
7.837410
 30
0.0
  0
LWPOLYLINE
  5
127
100
AcDbEntity
  8
0
 62
1
100
AcDbPolyline
 90
4
 70
0
 10
0.587574
 20
7.995787
 30
0.0
 10
0.902540
 20
7.995787
 30
0.0
 10
2.162829
 20
7.995787
 30
0.0
 10
2.477351
 20
7.995787
 30
0.0
  0
SPLINE
  5
128
100
AcDbEntity
  8
0
 62
1
100
AcDbSpline
 70
8
 71
3
 72
8
 73
4
 74
0
 40
0
 40
0
 40
0
 40
0
 40
1
 40
1
 40
1
 40
1
 10
2.477351
 20
6.672498
 30
0.0
 10
2.477351
 20
6.672498
 30
0.0
 10
2.545306
 20
6.964811
 30
0.0
 10
2.675272
 20
6.964811
 30
0.0
  0
SPLINE
  5
129
100
AcDbEntity
  8
0
 62
1
100
AcDbSpline
 70
8
 71
3
 72
8
 73
4
 74
0
 40
0
 40
0
 40
0
 40
0
 40
1
 40
1
 40
1
 40
1
 10
2.675272
 20
6.964811
 30
0.0
 10
2.907025
 20
6.964811
 30
0.0
 10
2.990949
 20
6.967096
 30
0.0
 10
3.339574
 20
6.967096
 30
0.0
  0
SPLINE
  5
12a
100
AcDbEntity
  8
0
 62
1
100
AcDbSpline
 70
8
 71
3
 72
8
 73
4
 74
0
 40
0
 40
0
 40
0
 40
0
 40
1
 40
1
 40
1
 40
1
 10
3.339574
 20
6.967096
 30
0.0
 10
3.437969
 20
6.967096
 30
0.0
 10
3.476082
 20
6.995315
 30
0.0
 10
3.520408
 20
7.114029
 30
0.0
  0
SPLINE
  5
12b
100
AcDbEntity
  8
0
 62
1
100
AcDbSpline
 70
8
 71
3
 72
8
 73
4
 74
0
 40
0
 40
0
 40
0
 40
0
 40
1
 40
1
 40
1
 40
1
 10
3.520408
 20
7.114029
 30
0.0
 10
3.642531
 20
7.441097
 30
0.0
 10
3.889433
 20
8.026032
 30
0.0
 10
3.889433
 20
8.026032
 30
0.0
  0
SPLINE
  5
12c
100
AcDbEntity
  8
0
 62
1
100
AcDbSpline
 70
8
 71
3
 72
8
 73
4
 74
0
 40
0
 40
0
 40
0
 40
0
 40
1
 40
1
 40
1
 40
1
 10
3.889433
 20
8.026032
 30
0.0
 10
3.889433
 20
8.026032
 30
0.0
 10
3.913056
 20
8.096901
 30
0.0
 10
3.964236
 20
8.167771
 30
0.0
  0
SPLINE
  5
12d
100
AcDbEntity
  8
0
 62
1
100
AcDbSpline
 70
8
 71
3
 72
8
 73
4
 74
0
 40
0
 40
0
 40
0
 40
0
 40
1
 40
1
 40
1
 40
1
 10
3.964236
 20
8.167771
 30
0.0
 10
4.015417
 20
8.238640
 30
0.0
 10
4.094156
 20
8.309510
 30
0.0
 10
4.204389
 20
8.309510
 30
0.0
  0
SPLINE
  5
12e
100
AcDbEntity
  8
0
 62
1
100
AcDbSpline
 70
8
 71
3
 72
8
 73
4
 74
0
 40
0
 40
0
 40
0
 40
0
 40
1
 40
1
 40
1
 40
1
 10
4.204389
 20
8.309510
 30
0.0
 10
4.429322
 20
8.309510
 30
0.0
 10
4.351167
 20
8.309498
 30
0.0
 10
8.697844
 20
8.309498
 30
0.0
  0
SPLINE
  5
12f
100
AcDbEntity
  8
0
 62
1
100
AcDbSpline
 70
8
 71
3
 72
8
 73
4
 74
0
 40
0
 40
0
 40
0
 40
0
 40
1
 40
1
 40
1
 40
1
 10
8.697844
 20
8.309498
 30
0.0
 10
8.697844
 20
8.309498
 30
0.0
 10
8.921344
 20
8.309521
 30
0.0
 10
9.012822
 20
8.026032
 30
0.0
  0
LWPOLYLINE
  5
130
100
AcDbEntity
  8
0
 62
1
100
AcDbPolyline
 90
3
 70
0
 10
2.162829
 20
7.837410
 30
0.0
 10
2.477351
 20
7.522887
 30
0.0
 10
2.477351
 20
6.672498
 30
0.0
  0
SPLINE
  5
131
100
AcDbEntity
  8
0
 62
1
100
AcDbSpline
 70
8
 71
3
 72
8
 73
4
 74
0
 40
0
 40
0
 40
0
 40
0
 40
1
 40
1
 40
1
 40
1
 10
9.516756
 20
6.671698
 30
0.0
 10
9.548233
 20
6.640210
 30
0.0
 10
9.642733
 20
6.671698
 30
0.0
 10
9.642733
 20
6.703198
 30
0.0
  0
SPLINE
  5
132
100
AcDbEntity
  8
0
 62
1
100
AcDbSpline
 70
8
 71
3
 72
8
 73
4
 74
0
 40
0
 40
0
 40
0
 40
0
 40
1
 40
1
 40
1
 40
1
 10
11.438071
 20
6.671386
 30
0.0
 10
11.448448
 20
6.452206
 30
0.0
 10
11.423427
 20
6.492798
 30
0.0
 10
11.260293
 20
6.341394
 30
0.0
  0
LWPOLYLINE
  5
133
100
AcDbEntity
  8
0
 62
1
100
AcDbPolyline
 90
2
 70
0
 10
9.012822
 20
8.026032
 30
0.0
 10
9.516756
 20
6.671698
 30
0.0
  0
SPLINE
  5
134
100
AcDbEntity
  8
0
 62
1
100
AcDbSpline
 70
8
 71
3
 72
8
 73
4
 74
0
 40
0
 40
0
 40
0
 40
0
 40
1
 40
1
 40
1
 40
1
 10
11.260293
 20
5.681410
 30
0.0
 10
11.442094
 20
5.512770
 30
0.0
 10
11.438071
 20
5.577338
 30
0.0
 10
11.438071
 20
5.351419
 30
0.0
  0
LWPOLYLINE
  5
135
100
AcDbEntity
  8
0
 62
1
100
AcDbPolyline
 90
5
 70
0
 10
11.260293
 20
6.341394
 30
0.0
 10
11.438071
 20
6.176398
 30
0.0
 10
11.438071
 20
6.011402
 30
0.0
 10
11.438071
 20
5.846406
 30
0.0
 10
11.260293
 20
5.681410
 30
0.0
  0
LWPOLYLINE
  5
136
100
AcDbEntity
  8
0
 62
1
100
AcDbPolyline
 90
5
 70
1
 10
4.126922
 20
2.514211
 30
0.0
 10
4.441889
 20
2.514211
 30
0.0
 10
4.441889
 20
1.884289
 30
0.0
 10
4.126922
 20
1.884289
 30
0.0
 10
4.126922
 20
2.514211
 30
0.0
  0
ENDSEC
  0
SECTION
  2
OBJECTS
  0
DICTIONARY
  5
C
330
0
100
AcDbDictionary
  3
ACAD_GROUP
350
D
  3
ACAD_MLINESTYLE
350
17
  0
DICTIONARY
  5
D
330
C
100
AcDbDictionary
  0
DICTIONARY
  5
1A
330
C
100
AcDbDictionary
  0
DICTIONARY
  5
17
330
C
100
AcDbDictionary
  3
STANDARD
350
18
  0
DICTIONARY
  5
19
330
C
100
AcDbDictionary
  0
ENDSEC
  0
EOF
